<?xml version="1.0" encoding="UTF-8"?>
<!DOCTYPE svg PUBLIC "-//W3C//DTD SVG 1.1//EN" "http://www.w3.org/Graphics/SVG/1.1/DTD/svg11.dtd">
<svg version="1.1" xmlns="http://www.w3.org/2000/svg" xmlns:xlink="http://www.w3.org/1999/xlink" x="0" y="0" width="105" height="45" viewBox="0, 0, 105, 45">
  <g id="Layer_1">
    <path d="M25.956,30.708 C25.956,27.396 24.564,24.612 22.02,22.98 L20.196,22.548 L20.196,22.068 L21.444,21.588 C23.892,20.052 25.476,17.556 25.476,13.956 C25.476,8.244 20.772,4.74 14.484,4.74 L6.9,4.74 C6.372,4.74 5.94,5.124 5.94,5.652 C5.94,6.18 6.372,6.564 6.9,6.564 L14.484,6.564 C19.428,6.564 23.556,9.204 23.556,13.956 C23.556,18.564 20.148,20.82 16.212,21.54 C15.78,21.636 15.444,22.02 15.444,22.5 C15.444,22.98 15.828,23.364 16.548,23.364 C21.204,23.364 24.036,26.484 24.036,30.708 C24.036,35.604 20.292,38.436 14.436,38.436 L6.9,38.436 C6.372,38.436 5.94,38.82 5.94,39.348 C5.94,39.876 6.372,40.26 6.9,40.26 L14.436,40.26 C21.732,40.26 25.956,36.564 25.956,30.708 z M4.068,4.74 C3.54,4.74 3.108,5.172 3.108,5.7 L3.108,39.3 C3.108,39.828 3.54,40.26 4.068,40.26 C4.596,40.26 5.028,39.828 5.028,39.3 L5.028,5.7 C5.028,5.172 4.596,4.74 4.068,4.74 z M5.94,22.452 C5.94,22.98 6.372,23.364 6.9,23.364 L13.572,23.364 C14.1,23.364 14.532,22.98 14.532,22.452 C14.532,21.924 14.1,21.54 13.572,21.54 L6.9,21.54 C6.372,21.54 5.94,21.924 5.94,22.452 z" fill="#FFFFFF"/>
    <path d="M40.98,8.436 C40.98,7.908 40.548,7.476 40.02,7.476 C39.492,7.476 39.06,7.908 39.06,8.436 L39.06,36.564 C39.06,37.092 39.492,37.524 40.02,37.524 C40.548,37.524 40.98,37.092 40.98,36.564 z M34.836,38.436 C34.308,38.436 33.876,38.868 33.876,39.348 C33.876,39.828 34.308,40.26 34.836,40.26 L45.204,40.26 C45.732,40.26 46.164,39.828 46.164,39.348 C46.164,38.868 45.732,38.436 45.204,38.436 z M34.836,4.74 C34.308,4.74 33.876,5.172 33.876,5.652 C33.876,6.132 34.308,6.564 34.836,6.564 L45.204,6.564 C45.732,6.564 46.164,6.132 46.164,5.652 C46.164,5.172 45.732,4.74 45.204,4.74 z" fill="#FFFFFF"/>
    <path d="M60.948,8.436 C60.948,7.908 60.516,7.476 59.988,7.476 C59.46,7.476 59.028,7.908 59.028,8.436 L59.028,36.564 C59.028,37.092 59.46,37.524 59.988,37.524 C60.516,37.524 60.948,37.092 60.948,36.564 z M54.804,38.436 C54.276,38.436 53.844,38.868 53.844,39.348 C53.844,39.828 54.276,40.26 54.804,40.26 L65.172,40.26 C65.7,40.26 66.132,39.828 66.132,39.348 C66.132,38.868 65.7,38.436 65.172,38.436 z M54.804,4.74 C54.276,4.74 53.844,5.172 53.844,5.652 C53.844,6.132 54.276,6.564 54.804,6.564 L65.172,6.564 C65.7,6.564 66.132,6.132 66.132,5.652 C66.132,5.172 65.7,4.74 65.172,4.74 z" fill="#FFFFFF"/>
    <path d="M72.132,4.74 C71.604,4.74 71.172,5.124 71.172,5.652 C71.172,6.18 71.604,6.564 72.132,6.564 L100.932,6.564 C101.46,6.564 101.892,6.18 101.892,5.652 C101.892,5.124 101.46,4.74 100.932,4.74 z M87.492,8.436 C87.492,7.908 87.06,7.476 86.532,7.476 C86.004,7.476 85.572,7.908 85.572,8.436 L85.572,27.06 C85.572,27.588 86.004,28.02 86.532,28.02 C87.06,28.02 87.492,27.588 87.492,27.06 z M87.492,29.892 C87.492,29.364 87.06,28.932 86.532,28.932 C86.004,28.932 85.572,29.364 85.572,29.892 L85.572,39.3 C85.572,39.828 86.004,40.26 86.532,40.26 C87.06,40.26 87.492,39.828 87.492,39.3 z" fill="#FFFFFF"/>
  </g>
</svg>
