<?xml version="1.0" encoding="UTF-8"?>
<!DOCTYPE svg PUBLIC "-//W3C//DTD SVG 1.1//EN" "http://www.w3.org/Graphics/SVG/1.1/DTD/svg11.dtd">
<svg version="1.1" xmlns="http://www.w3.org/2000/svg" xmlns:xlink="http://www.w3.org/1999/xlink" x="0" y="0" width="98.784" height="35.52" viewBox="0, 0, 98.784, 35.52">
  <g id="Layer_1" transform="translate(-113.792, -230.48)">
    <path d="M136.64,256.448 C136.64,253.136 135.248,250.352 132.704,248.72 L130.88,248.288 L130.88,247.808 L132.128,247.328 C134.576,245.792 136.16,243.296 136.16,239.696 C136.16,233.984 131.456,230.48 125.168,230.48 L117.584,230.48 C117.056,230.48 116.624,230.864 116.624,231.392 C116.624,231.92 117.056,232.304 117.584,232.304 L125.168,232.304 C130.112,232.304 134.24,234.944 134.24,239.696 C134.24,244.304 130.832,246.56 126.896,247.28 C126.464,247.376 126.128,247.76 126.128,248.24 C126.128,248.72 126.512,249.104 127.232,249.104 C131.888,249.104 134.72,252.224 134.72,256.448 C134.72,261.344 130.976,264.176 125.12,264.176 L117.584,264.176 C117.056,264.176 116.624,264.56 116.624,265.088 C116.624,265.616 117.056,266 117.584,266 L125.12,266 C132.416,266 136.64,262.304 136.64,256.448 z M114.752,230.48 C114.224,230.48 113.792,230.912 113.792,231.44 L113.792,265.04 C113.792,265.568 114.224,266 114.752,266 C115.28,266 115.712,265.568 115.712,265.04 L115.712,231.44 C115.712,230.912 115.28,230.48 114.752,230.48 z M116.624,248.192 C116.624,248.72 117.056,249.104 117.584,249.104 L124.256,249.104 C124.784,249.104 125.216,248.72 125.216,248.192 C125.216,247.664 124.784,247.28 124.256,247.28 L117.584,247.28 C117.056,247.28 116.624,247.664 116.624,248.192 z" fill="#FFFFFF"/>
    <path d="M151.664,234.176 C151.664,233.648 151.232,233.216 150.704,233.216 C150.176,233.216 149.744,233.648 149.744,234.176 L149.744,262.304 C149.744,262.832 150.176,263.264 150.704,263.264 C151.232,263.264 151.664,262.832 151.664,262.304 z M145.52,264.176 C144.992,264.176 144.56,264.608 144.56,265.088 C144.56,265.568 144.992,266 145.52,266 L155.888,266 C156.416,266 156.848,265.568 156.848,265.088 C156.848,264.608 156.416,264.176 155.888,264.176 z M145.52,230.48 C144.992,230.48 144.56,230.912 144.56,231.392 C144.56,231.872 144.992,232.304 145.52,232.304 L155.888,232.304 C156.416,232.304 156.848,231.872 156.848,231.392 C156.848,230.912 156.416,230.48 155.888,230.48 z" fill="#FFFFFF"/>
    <path d="M171.632,234.176 C171.632,233.648 171.2,233.216 170.672,233.216 C170.144,233.216 169.712,233.648 169.712,234.176 L169.712,262.304 C169.712,262.832 170.144,263.264 170.672,263.264 C171.2,263.264 171.632,262.832 171.632,262.304 z M165.488,264.176 C164.96,264.176 164.528,264.608 164.528,265.088 C164.528,265.568 164.96,266 165.488,266 L175.856,266 C176.384,266 176.816,265.568 176.816,265.088 C176.816,264.608 176.384,264.176 175.856,264.176 z M165.488,230.48 C164.96,230.48 164.528,230.912 164.528,231.392 C164.528,231.872 164.96,232.304 165.488,232.304 L175.856,232.304 C176.384,232.304 176.816,231.872 176.816,231.392 C176.816,230.912 176.384,230.48 175.856,230.48 z" fill="#FFFFFF"/>
    <path d="M182.816,230.48 C182.288,230.48 181.856,230.864 181.856,231.392 C181.856,231.92 182.288,232.304 182.816,232.304 L211.616,232.304 C212.144,232.304 212.576,231.92 212.576,231.392 C212.576,230.864 212.144,230.48 211.616,230.48 z M198.176,234.176 C198.176,233.648 197.744,233.216 197.216,233.216 C196.688,233.216 196.256,233.648 196.256,234.176 L196.256,252.8 C196.256,253.328 196.688,253.76 197.216,253.76 C197.744,253.76 198.176,253.328 198.176,252.8 z M198.176,255.632 C198.176,255.104 197.744,254.672 197.216,254.672 C196.688,254.672 196.256,255.104 196.256,255.632 L196.256,265.04 C196.256,265.568 196.688,266 197.216,266 C197.744,266 198.176,265.568 198.176,265.04 z" fill="#FFFFFF"/>
  </g>
</svg>
