<?xml version="1.0" encoding="UTF-8"?>
<!DOCTYPE svg PUBLIC "-//W3C//DTD SVG 1.1//EN" "http://www.w3.org/Graphics/SVG/1.1/DTD/svg11.dtd">
<svg version="1.1" xmlns="http://www.w3.org/2000/svg" xmlns:xlink="http://www.w3.org/1999/xlink" x="0" y="0" width="283.602" height="189.07" viewBox="0, 0, 283.602, 189.07">
  <g id="Layer_1">
    <path d="M0,0 L283.602,0 L283.602,189.07 L0,189.07 z" fill="#003399"/>
    <path d="M135.758,41.195 L141.742,36.828 L147.727,41.195 L145.449,34.133 L151.528,29.765 L144.035,29.765 L141.742,22.617 L139.449,29.773 L131.961,29.765 L138.035,34.133 z" fill="#FFCC00"/>
    <path d="M104.789,49.515 L110.773,45.148 L116.754,49.515 L114.48,42.453 L120.555,38.085 L113.062,38.085 L110.769,30.929 L108.477,38.093 L100.988,38.085 L107.062,42.453 z" fill="#FFCC00"/>
    <path d="M88.114,53.64 L85.821,60.804 L78.333,60.796 L84.407,65.163 L82.13,72.226 L88.114,67.859 L94.098,72.226 L91.821,65.163 L97.895,60.796 L90.407,60.796 z" fill="#FFCC00"/>
    <path d="M79.801,98.789 L85.781,103.156 L83.508,96.094 L89.582,91.727 L82.094,91.727 L79.801,84.57 L77.508,91.742 L70.016,91.727 L76.094,96.094 L73.817,103.156 z" fill="#FFCC00"/>
    <path d="M90.407,122.75 L88.114,115.594 L85.821,122.758 L78.333,122.75 L84.407,127.117 L82.13,134.18 L88.114,129.805 L94.098,134.18 L91.821,127.117 L97.895,122.75 z" fill="#FFCC00"/>
    <path d="M113.11,145.453 L110.817,138.305 L108.528,145.461 L101.036,145.453 L107.11,149.82 L104.837,156.883 L110.821,152.515 L116.801,156.883 L114.528,149.82 L120.602,145.453 z" fill="#FFCC00"/>
    <path d="M144.039,153.679 L141.746,146.523 L139.457,153.687 L131.965,153.679 L138.039,158.046 L135.766,165.109 L141.75,160.741 L147.73,165.109 L145.453,158.046 L151.531,153.679 z" fill="#FFCC00"/>
    <path d="M174.969,145.453 L172.68,138.305 L170.383,145.461 L162.899,145.453 L168.969,149.82 L166.696,156.883 L172.68,152.515 L178.664,156.883 L176.383,149.82 L182.461,145.453 z" fill="#FFCC00"/>
    <path d="M197.68,122.75 L195.383,115.594 L193.086,122.758 L185.602,122.75 L191.68,127.117 L189.399,134.18 L195.383,129.805 L201.368,134.18 L199.086,127.117 L205.164,122.75 z" fill="#FFCC00"/>
    <path d="M213.391,91.64 L205.899,91.64 L203.602,84.484 L201.313,91.648 L193.821,91.64 L199.899,96.007 L197.625,103.07 L203.602,98.695 L209.586,103.07 L207.313,96.007 z" fill="#FFCC00"/>
    <path d="M189.399,72.132 L195.383,67.765 L201.368,72.132 L199.087,65.07 L205.165,60.71 L197.68,60.71 L195.383,53.554 L193.087,60.718 L185.602,60.71 L191.68,65.07 z" fill="#FFCC00"/>
    <path d="M172.766,30.937 L170.477,38.101 L162.985,38.085 L169.055,42.46 L166.782,49.523 L172.774,45.148 L178.75,49.523 L176.477,42.46 L182.555,38.085 L175.055,38.085 z" fill="#FFCC00"/>
  </g>
</svg>
